# xmcd CD database file
#
# Track frame offsets:
#	150
#	24775
#	45223
#	69305
#	95957
#	145325
#	168279
#	199996
#	231269
#	260370
#	304585
#
# Disc length: 4431 seconds
#
# Revision: 0
# Processed by: cddbd v1.5.2PL0 Copyright (c) Steve Scherf et al.
# Submitted via: CDex 1.78
#
DISCID=8d114d0b
DTITLE=Horace Parlan - Seven Classic Albums CD3
DYEAR=1961
DGENRE=Jazz
TTITLE0=Prelude to a kiss
TTITLE1=Jim loves Sue
TTITLE2=My mother's eyes
TTITLE3=On the spur of the moment
TTITLE4=Skoo chee
TTITLE5=And that I am so in love
TTITLE6=Al's tune
TTITLE7=Ray C
TTITLE8=Pyramid
TTITLE9=The books beat
TTITLE10=Up and down
EXTD=YEAR: 1961
EXTT0=
EXTT1=
EXTT2=
EXTT3=
EXTT4=
EXTT5=
EXTT6=
EXTT7=
EXTT8=
EXTT9=
EXTT10=
PLAYORDER=
